<?xml version="1.0" encoding="iso-8859-1"?>
<!-- Generator: Adobe Illustrator 16.0.0, SVG Export Plug-In . SVG Version: 6.00 Build 0)  -->
<!DOCTYPE svg PUBLIC "-//W3C//DTD SVG 1.1//EN" "http://www.w3.org/Graphics/SVG/1.1/DTD/svg11.dtd">
<svg version="1.1" id="Capa_1" xmlns="http://www.w3.org/2000/svg" xmlns:xlink="http://www.w3.org/1999/xlink" x="0px" y="0px"
	 width="610.633px" height="610.633px" viewBox="0 0 610.633 610.633" style="enable-background:new 0 0 610.633 610.633;"
	 xml:space="preserve">
<g>
	<g>
		<path d="M534.305,0H76.328C55.252,0,38.164,17.069,38.164,38.164v534.305c0,21.095,17.088,38.164,38.164,38.164h343.48
			l152.66-152.661V38.164C572.469,17.069,555.399,0,534.305,0z M414.291,556.667V452.454h104.212L414.291,556.667z M529.452,412.603
			h-116.85c-20.649,0-37.355,16.711-37.355,37.356v116.849H81.181V43.83h448.266v368.773H529.452z"/>
		<path d="M133.574,147.693h343.485c10.548,0,19.082-10.571,19.082-23.634s-8.534-23.634-19.082-23.634H133.574
			c-10.547,0-19.082,10.571-19.082,23.634S123.026,147.693,133.574,147.693z"/>
		<path d="M133.574,248.496h343.485c10.548,0,19.082-10.571,19.082-23.634s-8.534-23.634-19.082-23.634H133.574
			c-10.547,0-19.082,10.571-19.082,23.634S123.026,248.496,133.574,248.496z"/>
		<path d="M133.574,349.304h343.485c10.548,0,19.082-10.571,19.082-23.634s-8.534-23.634-19.082-23.634H133.574
			c-10.547,0-19.082,10.571-19.082,23.634S123.026,349.304,133.574,349.304z"/>
		<path d="M133.574,451.402h171.743c10.548,0,19.082-10.571,19.082-23.634s-8.534-23.638-19.082-23.638H133.574
			c-10.547,0-19.082,10.571-19.082,23.633C114.492,440.826,123.026,451.402,133.574,451.402z"/>
	</g>
</g>
<g>
</g>
<g>
</g>
<g>
</g>
<g>
</g>
<g>
</g>
<g>
</g>
<g>
</g>
<g>
</g>
<g>
</g>
<g>
</g>
<g>
</g>
<g>
</g>
<g>
</g>
<g>
</g>
<g>
</g>
</svg>
