<svg width="32" height="32" xmlns="http://www.w3.org/2000/svg">
 <title>map-pin</title>

 <g>
  <title>background</title>
  <rect fill="none" id="canvas_background" height="402" width="582" y="-1" x="-1"/>
 </g>
 <g>
  <title>Layer 1</title>
  <path fill="#eb4139" id="svg_1" d="m16.01,1.536c-4.992,0 -9.037,3.971 -9.037,8.867c0,4.897 9.037,20.957 9.037,20.957s9.038,-16.06 9.038,-20.957c0,-4.896 -4.048,-8.867 -9.038,-8.867z"/>
  <path stroke="null" fill="#000000" id="svg_5" d="m5.823113,20.28913zm2.801981,-13.611916l0,1.462602l0.956699,0l2.241738,9.034302l2.172854,0l1.749612,-6.628776q0.09567,-0.273233 0.137,-0.628361q0.027552,-0.218893 0.027552,-0.328338l0.05434,0l0.04133,0.328338q0.013777,0.04133 0.048217,0.273233t0.075005,0.355128l1.749612,6.628776l2.172855,0l2.241738,-9.034302l0.956699,0l0,-1.462602l-4.10003,0l0,1.462602l1.229932,0l-1.353154,5.985876q-0.068118,0.273233 -0.09567,0.628361l-0.027552,0.287008l-0.05434,0q0,-0.04133 -0.006889,-0.088781t-0.020663,-0.109447t-0.013777,-0.088781q-0.013777,-0.068118 -0.05434,-0.28701t-0.068118,-0.341351l-1.967738,-7.448477l-1.558272,0l-1.967738,7.448477q-0.027554,0.123223 -0.06123,0.335227t-0.048217,0.293898l-0.05434,0.28701l-0.05434,0l-0.027552,-0.28701q-0.027552,-0.355126 -0.09567,-0.628361l-1.353156,-5.985874l1.229934,0l0,-1.462602l-4.10003,0l-0.002295,-0.000766z"/>
 </g>
</svg>