<svg width="32" height="32" xmlns="http://www.w3.org/2000/svg">
 <title>map-pin</title>

 <g>
  <title>background</title>
  <rect fill="none" id="canvas_background" height="402" width="582" y="-1" x="-1"/>
 </g>
 <g>
  <title>Layer 1</title>
  <g id="svg_7">
   <path id="svg_1" d="m16.01,1.536c-4.992,0 -9.037,3.971 -9.037,8.867c0,4.897 9.037,20.957 9.037,20.957s9.038,-16.06 9.038,-20.957c0,-4.896 -4.048,-8.867 -9.038,-8.867z"/>
   <path stroke="null" fill="#ffffff" id="svg_5" d="m21.293492,7.198908q0.21174,0.21174 0.362922,0.574661t0.151182,0.665286l0,8.711393q0,0.302364 -0.21174,0.514104t-0.514104,0.21174l-10.163504,0q-0.302364,0 -0.514104,-0.21174t-0.21174,-0.514104l0,-12.099228q0,-0.302364 0.21174,-0.514104t0.514104,-0.21174l6.775669,0q0.302364,0 0.665286,0.151182t0.574661,0.362922l2.359627,2.359627zm-3.357344,-1.845099l0,2.84324l2.84324,0q-0.075803,-0.219362 -0.166427,-0.309987l-2.366826,-2.366826q-0.090625,-0.090625 -0.309987,-0.166427zm2.903798,11.554633l0,-7.743743l-3.146028,0q-0.302364,0 -0.514104,-0.21174t-0.21174,-0.514104l0,-3.146028l-5.807595,0l0,11.615614l9.679467,0zm-8.885443,-6.775669l0,0.809269l0.529349,0l1.240371,4.99875l1.202258,0l0.968074,-3.667754q0.052935,-0.151182 0.075803,-0.347677q0.015245,-0.121115 0.015245,-0.181673l0.030067,0l0.022868,0.181673q0.007623,0.022868 0.026679,0.151182t0.041501,0.196494l0.968074,3.667754l1.202258,0l1.240371,-4.99875l0.529349,0l0,-0.809269l-2.268579,0l0,0.809269l0.680531,0l-0.748711,3.312032q-0.03769,0.151182 -0.052935,0.347677l-0.015245,0.158805l-0.030067,0q0,-0.022868 -0.003811,-0.049124t-0.011434,-0.060558t-0.007623,-0.049124q-0.007623,-0.03769 -0.030067,-0.158805t-0.03769,-0.188872l-1.088765,-4.121301l-0.862204,0l-1.088765,4.121301q-0.015245,0.06818 -0.033878,0.185484t-0.026679,0.162616l-0.030067,0.158805l-0.030067,0l-0.015245,-0.158805q-0.015245,-0.196494 -0.052935,-0.347677l-0.748711,-3.312032l0.680531,0l0,-0.809269l-2.268579,0l-0.00127,-0.000423z"/>
  </g>
 </g>
</svg>