<svg width="32" height="32" xmlns="http://www.w3.org/2000/svg">
 <title>map-pin</title>

 <g>
  <title>background</title>
  <rect fill="none" id="canvas_background" height="402" width="582" y="-1" x="-1"/>
 </g>
 <g>
  <title>Layer 1</title>
  <path fill="#eb4139" id="svg_1" d="m16.01,1.536c-4.992,0 -9.037,3.971 -9.037,8.867c0,4.897 9.037,20.957 9.037,20.957s9.038,-16.06 9.038,-20.957c0,-4.896 -4.048,-8.867 -9.038,-8.867z"/>
  <g stroke="null" id="svg_13">
   <path stroke="null" id="svg_12" d="m10.360396,15.847421l0,1.763861l4.675677,0l0,-1.763861l-1.247655,0l1.713546,-2.67887q0.082928,-0.116473 0.166788,-0.274876t0.124859,-0.224559t0.058702,-0.066156l0.033545,0q0.016772,0.066156 0.082928,0.166789q0.033544,0.066156 0.074542,0.124859t0.099701,0.133245t0.108086,0.141631l1.780634,2.67887l-1.264427,0l0,1.763862l4.841534,0l0,-1.763862l-1.131182,0l-3.195077,-4.542432l3.244462,-4.69245l1.114409,0l0,-1.780634l-4.642133,0l0,1.780634l1.230883,0l-1.713546,2.645327q-0.066156,0.116473 -0.166788,0.274875t-0.150018,0.224559l-0.033544,0.050316l-0.033545,0q-0.016772,-0.066156 -0.082928,-0.166788q-0.0997,-0.182629 -0.283261,-0.382962l-1.763862,-2.645327l1.264427,0l0,-1.780634l-4.825693,0l0,1.780634l1.131182,0l3.144761,4.52566l-3.227689,4.709221l-1.131182,0l0.001864,-0.000932z"/>
  </g>
 </g>
</svg>